<svg width="0" height="0" class="hidden">
  <symbol fill="#C5853A" version="1.1" id="hammer" xmlns="http://www.w3.org/2000/svg" xmlns:xlink="http://www.w3.org/1999/xlink" xml:space="preserve" viewBox="0 0 512 512">
    <g id="SVGRepo_bgCarrier" stroke-width="0"></g>
    <g id="SVGRepo_tracerCarrier" stroke-linecap="round" stroke-linejoin="round"></g>
    <g id="SVGRepo_iconCarrier">
      <g>
        <g>
          <path d="M428.412,88.072l-31.333-47.111C380.021,15.313,351.448,0,320.644,0H192.868c-10.545,0-19.124,8.579-19.124,19.123v16.364 c0,2.145-1.745,3.891-3.89,3.891h-24.16c-2.145,0-3.891-1.745-3.891-3.891v-4.888c0-10.121-8.234-18.357-18.357-18.357h-22.776 c-10.122,0-18.357,8.234-18.357,18.357v72.841c0,10.121,8.234,18.357,18.357,18.357h22.777c10.121,0,18.357-8.234,18.357-18.357 v-4.889c0-2.145,1.745-3.89,3.891-3.89h24.16c2.145,0,3.89,1.745,3.89,3.89v16.365c0,10.545,8.579,19.123,19.124,19.123h7.276 l-7.968,196.293c-0.191,2.373-0.294,4.823-0.299,7.354l-5.625,138.573c-0.383,9.431,3.006,18.374,9.543,25.182 C202.335,508.25,211.133,512,220.571,512h37.992c9.439,0,18.238-3.75,24.775-10.558c6.537-6.808,9.926-15.752,9.543-25.182 l-6.223-153.328c0-0.004,0-0.008,0-0.011l-3.253-80.126c-0.001-0.015-0.001-0.03-0.002-0.046L278.99,134.04h2.039 c10.545,0,19.123-8.579,19.123-19.123V86.401c0-6.487,5.278-11.764,11.764-11.764h22.702c8.505,0,16.895,1.405,24.937,4.174 l60.031,20.68c3.089,1.064,6.511,0.04,8.509-2.544C430.093,94.362,430.219,90.792,428.412,88.072z M213.012,495.221 c-2.311-0.994-4.424-2.452-6.227-4.328c-3.64-3.789-5.526-8.766-5.313-14.014l5.88-144.843 c1.489-19.674,10.273-33.461,18.817-46.814c8.455-13.214,16.441-25.695,16.441-42.14c0-25.318-16.913-36.476-30.018-40.099 l0.327-8.049h53.298l1.877,46.226c-3.749,6.583-15.443,28.588-27.176,65.85C228.601,346.131,214.002,410.078,213.012,495.221z M209.33,283.338l2.617-64.493c6.763,2.758,15.43,9.22,15.43,24.236c0,11.989-6.506,22.157-14.039,33.93 C212.015,279.078,210.669,281.182,209.33,283.338z M265.214,170.251l0.383,9.447h-52.061l0.384-9.447H265.214z M214.539,155.018 l0.852-20.978h48.354l0.851,20.978H214.539z M228.229,496.766c0.822-83.611,15.03-146.272,27.007-184.508 c4.927-15.727,9.874-28.677,14.169-38.783l1.933,47.633c-35.245,57.478-36.877,148.232-36.501,175.659H228.229z M272.35,490.891 c-3.638,3.788-8.534,5.875-13.786,5.875h-8.459c-0.228-22.289,0.976-91.341,22.508-144.245l5.047,124.356 C277.873,482.126,275.987,487.103,272.35,490.891z M364.518,64.408c-9.642-3.322-19.7-5.006-29.898-5.006h-22.702 c-14.887,0-26.998,12.112-26.998,26.998v28.515c0,2.145-1.745,3.89-3.89,3.89h-9.973h-62.982h-15.207 c-2.145,0-3.891-1.745-3.891-3.89V98.552c0-10.545-8.579-19.123-19.123-19.123h-24.16c-10.545,0-19.124,8.579-19.124,19.123v4.888 c0,1.693-1.43,3.123-3.123,3.123h-22.776c-1.693,0-3.123-1.43-3.123-3.123v-72.84c0-1.693,1.43-3.123,3.123-3.123h22.777 c1.693,0,3.123,1.43,3.123,3.123v4.888c0,10.545,8.579,19.124,19.124,19.124h24.16c10.545,0,19.123-8.579,19.123-19.124V19.123 c0-2.145,1.745-3.89,3.891-3.89h127.776c25.691,0,49.523,12.771,63.749,34.163l18.858,28.355L364.518,64.408z"></path>
        </g>
      </g>
      <g>
        <g>
          <path d="M238.091,23.969h-24.067c-8.29,0-15.035,6.744-15.035,15.035v11.88c0,4.207,3.41,7.617,7.617,7.617 s7.617-3.41,7.617-7.617V39.202h23.868c4.206,0,7.617-3.41,7.617-7.617S242.298,23.969,238.091,23.969z"></path>
        </g>
      </g>
    </g>
  </symbol>
  <symbol fill="#C5853A" version="1.1" id="carpenter" xmlns="http://www.w3.org/2000/svg" xmlns:xlink="http://www.w3.org/1999/xlink" xml:space="preserve" viewBox="0 0 459.249 459.249">
    <g id="SVGRepo_bgCarrier" stroke-width="0"></g>
    <g id="SVGRepo_tracerCarrier" stroke-linecap="round" stroke-linejoin="round"></g>
    <g id="SVGRepo_iconCarrier">
      <g>
        <path d="M90.088,182.049l46.504-46.504c3.586-3.586,5.562-8.355,5.562-13.427s-1.976-9.841-5.562-13.428l-8.042-8.042 c-7.404-7.404-19.45-7.404-26.855,0l-46.504,46.504c-7.404,7.404-7.404,19.451,0,26.855l8.042,8.042 c3.702,3.702,8.565,5.553,13.428,5.553C81.523,187.602,86.386,185.751,90.088,182.049z M63.677,165.522 c-2.725-2.725-2.725-7.159,0-9.884l46.504-46.504c1.362-1.363,3.152-2.044,4.942-2.044c1.79,0,3.58,0.681,4.942,2.044l8.042,8.042 c1.32,1.32,2.047,3.075,2.047,4.942c0,1.867-0.727,3.622-2.047,4.942l-46.504,46.504c-2.724,2.727-7.159,2.726-9.884,0 L63.677,165.522z"></path>
        <path d="M458.901,231.69l-6.452-18.136c-7.354-20.676-19.227-39.877-34.427-55.722c2.366-15.752-2.69-31.893-13.581-42.783 c-10.882-10.881-27.001-15.94-42.742-13.586l-15.53-15.531l5.746-5.747c2.344-2.343,2.344-6.142,0-8.485l-28.524-28.524 c-2.342-2.343-6.143-2.343-8.484,0l-52.184,52.183c-2.344,2.343-2.344,6.142,0,8.485l28.524,28.525 c1.125,1.125,2.65,1.757,4.242,1.757c1.591,0,3.117-0.632,4.242-1.757l5.747-5.747l15.53,15.53 c-0.939,6.287-0.677,12.63,0.647,18.681l-62.709,62.708l-88.105-88.106c7.143-9.652,6.372-23.361-2.369-32.102l-50.65-50.65 c-4.661-4.661-10.857-7.228-17.448-7.228c-6.591,0-12.788,2.567-17.448,7.228L7.228,128.383C2.567,133.044,0,139.241,0,145.831 c0,6.591,2.567,12.788,7.228,17.448l50.65,50.65c4.811,4.811,11.129,7.216,17.449,7.216c4.366,0,8.72-1.176,12.588-3.473 l31.354,5.874l17.031,29.547c0.875,1.519,2.371,2.579,4.094,2.901l33.535,6.281l16.92,29.364l-83.872,83.871 c-9.615,9.615-9.553,25.322,0.139,35.014c4.868,4.868,11.252,7.303,17.623,7.303c6.307,0,12.599-2.39,17.383-7.173l94.935-94.935 l8.554,14.843c0.875,1.519,2.372,2.579,4.095,2.902l33.533,6.271l17.021,29.555c0.875,1.52,2.372,2.581,4.096,2.904l33.534,6.271 l17.031,29.556c0.875,1.519,2.37,2.579,4.094,2.902l36.24,6.79c0.367,0.069,0.737,0.103,1.104,0.103 c1.55,0,3.056-0.601,4.187-1.702l21.47-20.91c1.149-1.12,1.803-2.654,1.813-4.259s-0.622-3.147-1.758-4.282L294.091,258.686 l61.595-61.595c6.938,1.959,14.354,2.487,21.691,1.384c15.845,15.2,35.046,27.072,55.723,34.427l18.137,6.452 c0.656,0.234,1.336,0.347,2.01,0.347c1.565,0,3.099-0.613,4.244-1.757C459.128,236.306,459.678,233.872,458.901,231.69z M295.489,119.641l-20.039-20.04l43.698-43.698l20.039,20.039L295.489,119.641z M66.363,205.445l-50.65-50.65 C13.318,152.4,12,149.217,12,145.831s1.319-6.569,3.713-8.963L91.412,61.17c2.394-2.394,5.577-3.713,8.963-3.713 s6.569,1.319,8.963,3.713l50.65,50.65c4.942,4.942,4.942,12.983,0,17.926l-75.724,75.722 C79.319,210.385,71.297,210.38,66.363,205.445z M182.947,253.893c-0.875-1.519-2.371-2.579-4.094-2.902l-33.535-6.282 l-17.031-29.547c-0.875-1.519-2.371-2.579-4.093-2.901l-25.056-4.694l63.432-63.432l87.893,87.893l-50.827,50.827L182.947,253.893z M409.286,390.852l-14.884,14.496l-30.465-5.708l-17.031-29.557c-0.875-1.52-2.371-2.58-4.095-2.902l-33.533-6.271l-17.021-29.555 c-0.875-1.52-2.372-2.581-4.096-2.904l-33.534-6.271l-8.785-15.244l39.764-39.764L409.286,390.852z M133.636,402.172 c-4.936,4.937-13.027,4.877-18.035-0.13c-5.013-5.013-5.076-13.107-0.139-18.043l210.681-210.681 c2.215,4.258,5.049,8.174,8.453,11.578c2.758,2.758,5.855,5.139,9.195,7.123L133.636,402.172z M437.122,221.597 c-20.003-7.116-38.511-18.812-53.522-33.823c-1.137-1.137-2.668-1.757-4.242-1.757c-0.423,0-0.849,0.044-1.271,0.136 c-12.81,2.774-26.221-0.958-35.006-9.743c-8.784-8.785-12.518-22.198-9.741-35.005c0.432-1.994-0.179-4.071-1.622-5.514 l-17.504-17.504l23.721-23.72l17.504,17.504c1.442,1.442,3.517,2.056,5.514,1.621c12.805-2.775,26.22,0.956,35.005,9.742 c8.786,8.786,12.52,22.199,9.742,35.005c-0.432,1.994,0.179,4.071,1.622,5.514c15.012,15.012,26.708,33.52,33.822,53.522 l2.221,6.241L437.122,221.597z"></path>
      </g>
    </g>
  </symbol>
  <symbol xmlns="http://www.w3.org/2000/svg" version="1.1" viewBox="0 0 1000 1000" id="chisel2">
    <path d="M 1.384 2.442 C 1.080 3.234, 0.981 4.618, 1.165 5.515 C 1.431 6.810, 2.106 6.513, 4.437 4.074 C 7.374 1, 7.374 1, 4.656 1 C 3.161 1, 1.688 1.649, 1.384 2.442 M 596.321 2.750 C 597.967 4.396, 605.700 4.516, 726.036 4.761 C 839.289 4.992, 854 5.196, 854 6.530 C 854 7.359, 844.212 15.320, 832.250 24.221 C 810.510 40.397, 810.473 40.432, 752.500 97.625 C 641.884 206.753, 497.327 352.257, 495.103 356.710 C 493.357 360.206, 492.999 362.751, 492.996 371.710 C 492.991 385.721, 491.070 397.193, 486.477 410.634 C 481.983 423.789, 472.329 443.293, 464.271 455.500 C 452.683 473.056, 433.498 496, 430.407 496 C 429.771 496, 420.038 486.883, 408.778 475.740 C 380.928 448.177, 375.011 443.858, 360.391 440.413 C 351.127 438.230, 334.975 438.983, 326.277 442.004 C 314.350 446.146, 302.394 455.657, 295.485 466.500 C 283.277 485.657, 283.726 513.799, 296.532 532.134 C 298.978 535.635, 300.983 539.176, 300.989 540.001 C 300.995 540.827, 240.220 602.252, 165.933 676.501 C 91.646 750.751, 28.031 814.875, 24.565 819 C 21.100 823.125, 15.702 830.438, 12.569 835.250 C 9.437 840.063, 6.455 844, 5.943 844 C 5.371 844, 4.913 748.069, 4.756 595.536 C 4.514 360.433, 4.406 346.977, 2.750 345.321 C 1.083 343.655, 1 356.210, 1 608.986 C 1 754.964, 1.375 873.972, 1.834 873.450 C 2.293 872.927, 3.659 868.675, 4.870 864 C 7.725 852.975, 14.324 839.535, 21.810 829.500 C 25.669 824.326, 77.413 771.906, 168.299 681.098 C 308.820 540.696, 308.820 540.696, 303.886 534.767 C 294.885 523.951, 291.042 513.214, 291.015 498.799 C 290.984 482.894, 295.335 471.864, 306.119 460.512 C 320.076 445.819, 338.285 440.255, 358.500 444.507 C 372.639 447.481, 375.962 449.914, 404.612 478.268 C 430.724 504.110, 430.724 504.110, 438.450 495.805 C 455.391 477.595, 471.589 454.267, 481.502 433.801 C 493.177 409.700, 497.447 393.007, 497.312 372 C 497.231 359.500, 497.231 359.500, 652.866 203.704 C 738.464 118.016, 811.650 45.455, 815.500 42.458 C 819.350 39.461, 831.050 30.623, 841.500 22.817 C 851.950 15.011, 862.678 6.909, 865.340 4.813 C 870.180 1, 870.180 1, 732.376 1 C 601.134 1, 594.655 1.083, 596.321 2.750 M 939.003 61.516 C 997.243 119.775, 999.512 121.914, 999.826 118.846 C 1000.134 115.838, 997.108 112.615, 946.076 61.576 C 916.334 31.830, 892 6.947, 892 6.279 C 892 5.353, 901.452 4.999, 931.965 4.783 C 968.468 4.525, 972.082 4.348, 973.679 2.750 C 975.345 1.083, 973.121 1, 926.967 1 C 878.506 1, 878.506 1, 939.003 61.516 M 850.500 37.645 C 838.400 46.761, 828.380 54.733, 828.232 55.360 C 827.784 57.268, 945.384 174.181, 947.049 173.483 C 947.847 173.148, 956.002 162.890, 965.170 150.687 C 981.840 128.500, 981.840 128.500, 928.174 74.750 C 898.657 45.188, 874.055 21.016, 873.503 21.035 C 872.952 21.055, 862.600 28.529, 850.500 37.645 M 853.951 40.729 C 843.947 48.280, 835.545 55.023, 835.280 55.713 C 834.759 57.069, 944.408 166.500, 946.287 166.500 C 947.626 166.500, 975 130.500, 975 128.739 C 975 127.179, 874.868 27, 873.309 27 C 872.666 27, 863.955 33.178, 853.951 40.729 M 665.749 214.751 C 585.037 295.464, 519 362.178, 519 363.004 C 519 364.965, 637.044 483, 639.004 483 C 640.966 483, 934 189.957, 934 187.996 C 934 186.035, 815.956 68, 813.996 68 C 813.172 68, 746.461 134.038, 665.749 214.751 M 668.750 218.106 C 589.688 297.225, 525 362.444, 525 363.038 C 525 364.552, 637.532 477, 639.047 477 C 640.682 477, 928 189.656, 928 188.021 C 928 186.218, 815.524 73.974, 813.871 74.127 C 813.117 74.198, 747.813 138.988, 668.750 218.106 M 995.407 138 C 993.155 141.025, 987.348 148.900, 982.502 155.500 C 956.759 190.557, 959.400 187.781, 798.098 349.353 C 711.307 436.289, 644.153 502.792, 642.377 503.563 C 640.148 504.532, 636.856 504.753, 630.877 504.334 C 615.797 503.277, 591.807 509.177, 571.205 519.008 C 548.813 529.692, 524.136 546.787, 504.238 565.395 C 497.935 571.290, 497.935 571.290, 523.254 596.895 C 545.004 618.890, 549.104 623.522, 552.340 629.748 C 566.373 656.749, 556.439 690.589, 530.497 704.160 C 520.810 709.228, 512.991 711.294, 503.500 711.294 C 490.503 711.294, 477.602 706.499, 466.695 697.616 C 461.279 693.204, 461.279 693.204, 320.389 834.168 C 237.211 917.391, 176.298 977.564, 171.684 981.069 C 162.052 988.386, 150.341 994.145, 138.500 997.388 C 129.500 999.853, 129.500 999.853, 138.554 999.927 C 147.363 999.998, 147.857 999.876, 156.856 995.411 C 161.942 992.888, 169.310 988.411, 173.228 985.463 C 177.146 982.515, 243.460 917.305, 320.593 840.552 C 397.725 763.798, 461.386 701, 462.063 701 C 462.739 701, 465.783 702.653, 468.826 704.672 C 493.923 721.331, 524.148 718.866, 545.520 698.417 C 552.420 691.815, 556.280 685.612, 559.712 675.610 C 562.151 668.503, 562.495 666.017, 562.495 655.500 C 562.494 641.601, 560.493 634.155, 554.111 624.310 C 549.574 617.310, 535.703 601.961, 518.600 585.015 C 511.670 578.148, 506 572.003, 506 571.359 C 506 568.002, 536.637 543.426, 552.511 534.050 C 574.783 520.895, 590.863 514.478, 611.818 510.380 C 621.855 508.417, 626.055 508.042, 632.084 508.568 C 638.543 509.131, 640.395 508.919, 644.374 507.159 C 648.177 505.477, 676.708 477.426, 795.780 358.304 C 876.476 277.574, 946.238 207.318, 950.806 202.179 C 960.885 190.843, 974.626 173.640, 986.493 157.500 C 991.346 150.900, 996.401 144.319, 997.726 142.875 C 999.582 140.853, 1000.063 139.358, 999.818 136.375 C 999.500 132.500, 999.500 132.500, 995.407 138 M 512.135 395.683 C 505.068 431.947, 484.898 469.038, 452.256 505.797 C 447.715 510.910, 444 515.639, 444 516.306 C 444 518.112, 484.262 558, 486.085 558 C 486.946 558, 488.742 556.827, 490.076 555.393 C 498.603 546.223, 522.408 527.735, 538.856 517.510 C 562.757 502.651, 587.374 492.761, 609.750 489.029 C 613.737 488.364, 617 487.521, 617 487.156 C 617 486.791, 593.921 463.417, 565.713 435.213 C 514.425 383.932, 514.425 383.932, 512.135 395.683 M 516.037 400.250 C 512.934 412.932, 505.046 434.480, 499.452 445.557 C 489.273 465.713, 471.485 491.296, 454.976 509.527 C 451.946 512.872, 450.226 515.570, 450.661 516.295 C 452.205 518.867, 484.558 551.972, 485.542 551.986 C 486.114 551.994, 492.189 547.228, 499.042 541.396 C 527.901 516.832, 555.587 500.475, 583.364 491.577 C 591.139 489.087, 599.413 486.571, 601.750 485.986 C 604.087 485.401, 606 484.376, 606 483.707 C 606 482.124, 519.868 396, 518.284 396 C 517.620 396, 516.609 397.913, 516.037 400.250 M 334.597 461.934 C 322.895 465.788, 313.632 474.624, 309.368 486 C 308.309 488.826, 307.648 493.681, 307.591 499.052 C 307.506 506.997, 307.763 508.133, 311.202 515.052 C 314.736 522.162, 318.665 526.253, 397.702 605.126 C 473.939 681.204, 481.026 688.005, 487.144 690.961 C 502.402 698.332, 519.356 694.879, 531.464 681.935 C 534.036 679.186, 537.346 674.363, 538.820 671.218 C 541.167 666.211, 541.500 664.257, 541.500 655.500 C 541.499 638.101, 547.792 645.539, 452.127 549.876 C 358.183 455.935, 363.933 460.910, 348.608 460.309 C 342.589 460.072, 338.979 460.491, 334.597 461.934 M 338.024 465.603 C 327.495 468.432, 319.005 475.430, 314.638 484.878 C 312.929 488.575, 312.502 491.401, 312.506 499 C 312.509 507.431, 312.815 509.062, 315.222 513.500 C 317.171 517.093, 341.090 541.763, 400.217 601.161 C 493.806 695.179, 487.166 689.500, 503.500 689.500 C 514.434 689.500, 519.823 687.268, 527.596 679.518 C 536.644 670.498, 539.763 658.163, 536.070 646.005 C 533.885 638.811, 533.885 638.811, 491.937 596.155 C 444.695 548.117, 366.897 471.267, 362.813 468.604 C 359.559 466.483, 350.623 464.004, 346.500 464.078 C 344.850 464.107, 341.036 464.794, 338.024 465.603 M 177.350 696.250 C 46.603 827.104, 34.846 839.141, 30.590 846.500 C 17.311 869.461, 14.097 891.445, 20.398 916.221 C 28.798 949.251, 53.267 973.449, 87.500 982.582 C 97.309 985.199, 117.673 985.213, 128 982.609 C 138.933 979.853, 149.329 975.524, 157.403 970.363 C 163.014 966.777, 194.179 936.167, 306.250 824.169 C 384.212 746.256, 448 681.831, 448 681.002 C 448 679.033, 322.958 554, 320.989 554 C 320.161 554, 255.523 618.013, 177.350 696.250 M 221.486 658.250 C 167.580 712.288, 103.892 776.300, 79.955 800.500 C 39.214 841.690, 36.172 845.011, 32.322 852.500 C 25.132 866.489, 22.845 874.803, 22.261 889.073 C 21.149 916.277, 30.035 938.434, 49.377 956.688 C 71.266 977.346, 101.500 985.093, 130.298 977.425 C 133.709 976.517, 141.222 973.513, 146.994 970.750 C 157.488 965.726, 157.488 965.726, 299.744 824.241 C 377.985 746.425, 442 682.087, 442 681.268 C 442 679.390, 322.753 560, 320.878 560 C 320.118 560, 275.392 604.212, 221.486 658.250 M 258.270 676.449 C 250.313 679.991, 249.021 689.187, 255.285 697.689 C 261.020 705.473, 303.034 746.480, 307.710 748.859 C 310.026 750.036, 313.176 750.998, 314.710 750.996 C 318.817 750.991, 323.913 747.452, 325.589 743.442 C 327.801 738.148, 326.047 733.253, 319.060 725.222 C 311.613 716.662, 275.481 681.002, 271.466 678.251 C 267.296 675.393, 262.204 674.698, 258.270 676.449 M 258.048 680.760 C 256.678 681.870, 255.659 684.120, 255.294 686.847 C 254.713 691.173, 254.713 691.173, 282.107 718.526 C 300.807 737.199, 310.417 746.103, 312.390 746.583 C 318.641 748.106, 324.019 743.282, 322.593 737.431 C 322.100 735.404, 313.331 725.940, 294.170 706.750 C 269.725 682.270, 266.093 679, 263.341 679 C 261.625 679, 259.243 679.792, 258.048 680.760 M 184.500 750.403 C 177.727 753.392, 175.279 760.528, 178.595 767.611 C 180.630 771.956, 221.049 813.480, 229.861 820.279 C 234.691 824.005, 235.947 824.500, 240.561 824.500 C 246.502 824.500, 249.383 822.610, 251.667 817.213 C 254.970 809.407, 251.405 804.484, 220.168 773.716 C 195.630 749.547, 191.925 747.125, 184.500 750.403 M 183.333 755.576 C 181.142 757.767, 180.840 758.768, 181.310 762.272 C 181.822 766.095, 183.799 768.323, 208.681 793.130 C 226.892 811.285, 236.428 820.095, 238.390 820.577 C 244.573 822.096, 249.975 817.084, 248.521 811.176 C 247.790 808.204, 197.345 756.829, 192.800 754.427 C 188.865 752.348, 186.243 752.666, 183.333 755.576 M 111.395 824.106 C 104.810 825.964, 101.134 832.493, 103.003 839.011 C 104.428 843.979, 107.891 848.016, 129.429 869.814 C 156.929 897.646, 162.155 901.424, 169.706 898.932 C 177.915 896.223, 180.547 886.801, 175.163 879.400 C 170.868 873.497, 129.511 831.540, 124.174 827.671 C 118.745 823.736, 115.709 822.889, 111.395 824.106 M 110.339 828.909 C 106.741 831.132, 105.524 833.944, 106.479 837.822 C 107.166 840.611, 153.074 887.683, 160.400 893.111 C 162.545 894.700, 165.378 896, 166.695 896 C 170.433 896, 174 891.767, 174 887.332 C 174 883.743, 172.742 882.316, 146.250 855.835 C 129.492 839.084, 117.510 827.871, 116 827.527 C 114.423 827.167, 112.333 827.677, 110.339 828.909 M 1 920.777 C 1 934.541, 13.353 957.449, 29.459 973.556 C 37.519 981.616, 47.980 988.974, 60.645 995.491 C 69.070 999.825, 69.740 999.998, 77.954 999.947 C 86.500 999.894, 86.500 999.894, 78.161 997.429 C 43.562 987.201, 15.273 959.129, 5.469 925.296 C 2.203 914.026, 1 912.810, 1 920.777" stroke="none" fill="#f8ede1" fill-rule="evenodd"></path>
    <path d="M 852.929 14.262 C 843.343 21.557, 830.550 31.078, 824.500 35.421 C 814.845 42.351, 794.159 62.652, 655.362 201.408 C 497.224 359.500, 497.224 359.500, 497.308 372 C 497.450 392.999, 493.180 409.694, 481.502 433.801 C 471.589 454.267, 455.391 477.595, 438.450 495.805 C 430.724 504.110, 430.724 504.110, 404.612 478.268 C 375.962 449.914, 372.639 447.481, 358.500 444.507 C 338.285 440.255, 320.076 445.819, 306.119 460.512 C 295.335 471.864, 290.984 482.894, 291.015 498.799 C 291.042 513.214, 294.885 523.951, 303.886 534.767 C 308.820 540.696, 308.820 540.696, 168.299 681.098 C 77.413 771.906, 25.669 824.326, 21.810 829.500 C 14.463 839.349, 7.768 852.899, 5.009 863.500 C 3.865 867.900, 2.494 872.281, 1.964 873.236 C 0.698 875.517, 0.698 914.298, 1.964 915.564 C 2.494 916.094, 4.071 920.474, 5.469 925.296 C 15.324 959.302, 43.762 987.405, 78.509 997.474 C 86.577 999.813, 88.755 1000, 107.862 999.997 C 126.796 999.995, 129.284 999.785, 138 997.456 C 150.235 994.185, 161.868 988.526, 171.684 981.069 C 176.298 977.564, 237.211 917.391, 320.389 834.168 C 461.279 693.204, 461.279 693.204, 466.695 697.616 C 477.602 706.499, 490.503 711.294, 503.500 711.294 C 512.991 711.294, 520.810 709.228, 530.497 704.160 C 556.439 690.589, 566.373 656.749, 552.340 629.748 C 549.104 623.522, 545.004 618.890, 523.254 596.895 C 497.935 571.290, 497.935 571.290, 504.238 565.395 C 524.136 546.787, 548.813 529.692, 571.205 519.008 C 591.807 509.177, 615.797 503.277, 630.877 504.334 C 636.856 504.753, 640.148 504.532, 642.377 503.563 C 644.153 502.792, 711.307 436.289, 798.098 349.353 C 959.433 187.748, 956.890 190.422, 982.485 155.500 C 987.323 148.900, 993.243 140.912, 995.640 137.749 C 999.368 132.831, 1000 131.308, 1000 127.246 C 1000 122.494, 1000 122.494, 939.247 61.747 C 878.821 1.327, 878.472 1, 874.425 1 C 870.748 1, 868.682 2.275, 852.929 14.262 M 850.500 37.645 C 838.400 46.761, 828.380 54.733, 828.232 55.360 C 827.784 57.268, 945.384 174.181, 947.049 173.483 C 947.847 173.148, 956.002 162.890, 965.170 150.687 C 981.840 128.500, 981.840 128.500, 928.174 74.750 C 898.657 45.188, 874.055 21.016, 873.503 21.035 C 872.952 21.055, 862.600 28.529, 850.500 37.645 M 665.749 214.751 C 585.037 295.464, 519 362.178, 519 363.004 C 519 364.965, 637.044 483, 639.004 483 C 640.966 483, 934 189.957, 934 187.996 C 934 186.035, 815.956 68, 813.996 68 C 813.172 68, 746.461 134.038, 665.749 214.751 M 512.135 395.683 C 505.068 431.947, 484.898 469.038, 452.256 505.797 C 447.715 510.910, 444 515.639, 444 516.306 C 444 518.112, 484.262 558, 486.085 558 C 486.946 558, 488.742 556.827, 490.076 555.393 C 498.603 546.223, 522.408 527.735, 538.856 517.510 C 562.757 502.651, 587.374 492.761, 609.750 489.029 C 613.737 488.364, 617 487.521, 617 487.156 C 617 486.791, 593.921 463.417, 565.713 435.213 C 514.425 383.932, 514.425 383.932, 512.135 395.683 M 334.597 461.934 C 322.895 465.788, 313.632 474.624, 309.368 486 C 308.309 488.826, 307.648 493.681, 307.591 499.052 C 307.506 506.997, 307.763 508.133, 311.202 515.052 C 314.736 522.162, 318.665 526.253, 397.702 605.126 C 473.939 681.204, 481.026 688.005, 487.144 690.961 C 502.402 698.332, 519.356 694.879, 531.464 681.935 C 534.036 679.186, 537.346 674.363, 538.820 671.218 C 541.167 666.211, 541.500 664.257, 541.500 655.500 C 541.499 638.101, 547.792 645.539, 452.127 549.876 C 358.183 455.935, 363.933 460.910, 348.608 460.309 C 342.589 460.072, 338.979 460.491, 334.597 461.934 M 177.350 696.250 C 46.603 827.104, 34.846 839.141, 30.590 846.500 C 17.311 869.461, 14.097 891.445, 20.398 916.221 C 28.798 949.251, 53.267 973.449, 87.500 982.582 C 97.309 985.199, 117.673 985.213, 128 982.609 C 138.933 979.853, 149.329 975.524, 157.403 970.363 C 163.014 966.777, 194.179 936.167, 306.250 824.169 C 384.212 746.256, 448 681.831, 448 681.002 C 448 679.033, 322.958 554, 320.989 554 C 320.161 554, 255.523 618.013, 177.350 696.250 M 258.048 680.760 C 256.678 681.870, 255.659 684.120, 255.294 686.847 C 254.713 691.173, 254.713 691.173, 282.107 718.526 C 300.807 737.199, 310.417 746.103, 312.390 746.583 C 318.641 748.106, 324.019 743.282, 322.593 737.431 C 322.100 735.404, 313.331 725.940, 294.170 706.750 C 269.725 682.270, 266.093 679, 263.341 679 C 261.625 679, 259.243 679.792, 258.048 680.760 M 183.333 755.576 C 181.142 757.767, 180.840 758.768, 181.310 762.272 C 181.822 766.095, 183.799 768.323, 208.681 793.130 C 226.892 811.285, 236.428 820.095, 238.390 820.577 C 244.573 822.096, 249.975 817.084, 248.521 811.176 C 247.790 808.204, 197.345 756.829, 192.800 754.427 C 188.865 752.348, 186.243 752.666, 183.333 755.576 M 110.339 828.909 C 106.741 831.132, 105.524 833.944, 106.479 837.822 C 107.166 840.611, 153.074 887.683, 160.400 893.111 C 162.545 894.700, 165.378 896, 166.695 896 C 170.433 896, 174 891.767, 174 887.332 C 174 883.743, 172.742 882.316, 146.250 855.835 C 129.492 839.084, 117.510 827.871, 116 827.527 C 114.423 827.167, 112.333 827.677, 110.339 828.909" stroke="none" fill="#c4853e" fill-rule="evenodd"></path>
  </symbol>
  <symbol version="1.1" xmlns="http://www.w3.org/2000/svg" fill="#C5853A" viewBox="0 0 20 20" id="mallet">
    <g id="SVGRepo_bgCarrier" stroke-width="0"></g>
    <g id="SVGRepo_tracerCarrier" stroke-linecap="round" stroke-linejoin="round"></g>
    <g id="SVGRepo_iconCarrier">
      <g id="layer1">
        <path d="M 11.992188 0.5 A 0.50005 0.50005 0 0 0 11.742188 0.5703125 L 10.492188 1.3203125 A 0.50005 0.50005 0 0 0 10.396484 1.3964844 L 8.3964844 3.3964844 A 0.50005 0.50005 0 0 0 8.3203125 3.4921875 L 7.5703125 4.7421875 A 0.50005 0.50005 0 0 0 7.6464844 5.3535156 L 10.042969 7.75 L 0.39648438 17.396484 C 0.20129967 17.591749 0.20129967 17.908251 0.39648438 18.103516 L 1.8964844 19.603516 C 2.0917493 19.7987 2.4082507 19.7987 2.6035156 19.603516 L 12.25 9.9570312 L 14.646484 12.353516 A 0.50005 0.50005 0 0 0 15.257812 12.429688 L 16.507812 11.679688 A 0.50005 0.50005 0 0 0 16.603516 11.603516 L 18.603516 9.6035156 A 0.50005 0.50005 0 0 0 18.679688 9.5078125 L 19.429688 8.2578125 A 0.50005 0.50005 0 0 0 19.353516 7.6464844 L 16.957031 5.25 L 17.802734 4.4042969 C 17.997918 4.209032 17.997918 3.8925305 17.802734 3.6972656 L 16.302734 2.1972656 C 16.207547 2.1020486 16.077986 2.0492386 15.943359 2.0507812 C 15.812793 2.0523414 15.688018 2.1049192 15.595703 2.1972656 L 14.75 3.0429688 L 12.353516 0.64648438 A 0.50005 0.50005 0 0 0 11.992188 0.5 z M 11.923828 1.6308594 L 18.371094 8.078125 L 17.853516 8.9394531 L 15.939453 10.853516 L 15.078125 11.371094 L 8.6289062 4.921875 L 9.1464844 4.0605469 L 11.060547 2.1464844 L 11.923828 1.6308594 z M 15.949219 3.2578125 L 16.742188 4.0507812 L 16.25 4.5429688 L 15.457031 3.75 L 15.949219 3.2578125 z M 10.75 8.4570312 L 11.542969 9.25 L 2.25 18.542969 L 1.4570312 17.75 L 10.75 8.4570312 z "></path>
      </g>
    </g>
  </symbol>
  <symbol fill="none" xmlns="http://www.w3.org/2000/svg" viewBox="0 0 24 24" id="menu">
    <path d="M4 6H20M4 12H20M4 18H20" stroke="#4A5568" stroke-linecap="round" stroke-linejoin="round" stroke-width="2"></path>
  </symbol>
  <symbol fill="#C5853A" version="1.1" id="rasp" xmlns="http://www.w3.org/2000/svg" xmlns:xlink="http://www.w3.org/1999/xlink" xml:space="preserve" viewBox="0 0 512 512">
    <g id="SVGRepo_bgCarrier" stroke-width="0"></g>
    <g id="SVGRepo_tracerCarrier" stroke-linecap="round" stroke-linejoin="round"></g>
    <g id="SVGRepo_iconCarrier">
      <g>
        <g>
          <path d="M501.36,34.173l-26.621-26.62c-10.069-10.07-26.456-10.069-36.527,0l-65.133,65.135 c-7.903,7.904-15.115,16.582-21.435,25.795l-14.726,21.465c-0.491,0.716-1.187,0.88-1.558,0.915c-0.372,0.029-1.085,0-1.732-0.648 c-2.584-2.583-6.019-4.006-9.671-4.006c-3.655,0-7.089,1.423-9.671,4.006l-19.998,19.997c-1.426,1.426-2.227,3.361-2.227,5.378 s0.801,3.952,2.227,5.378l13.029,13.029l-26.105,26.106c-3.988,3.989-10.479,3.989-14.466,0c-1.427-1.427-3.361-2.228-5.379-2.228 s-3.951,0.801-5.379,2.228L5.302,440.789c-1.426,1.426-2.227,3.361-2.227,5.378c0,2.017,0.801,3.952,2.227,5.378l58.227,58.227 c1.486,1.485,3.433,2.228,5.379,2.228s3.893-0.742,5.379-2.228l250.686-250.686c2.971-2.971,2.971-7.787,0-10.756l-1.993-1.992 c-1.931-1.932-2.996-4.501-2.996-7.232c0-2.732,1.065-5.301,2.997-7.233l26.105-26.105l8.858,8.858 c1.427,1.427,3.361,2.228,5.379,2.228s3.951-0.801,5.379-2.228l19.996-19.997c2.584-2.583,4.007-6.018,4.007-9.671 c0-3.653-1.423-7.088-4.006-9.671c-0.615-0.615-0.649-1.331-0.614-1.702c0.034-0.372,0.2-1.068,0.918-1.559l20.653-14.095 c9.351-6.381,18.15-13.675,26.155-21.68l65.548-65.548c4.879-4.878,7.566-11.365,7.566-18.264 C508.925,45.537,506.238,39.051,501.36,34.173z M312.222,221.115c-4.805,4.805-7.452,11.195-7.452,17.991 c0,5.17,1.532,10.105,4.381,14.287L68.908,493.636l-47.47-47.469l240.75-240.75c9.592,5.009,21.735,3.491,29.782-4.558 l26.105-26.105l20.254,20.254L312.222,221.115z M490.602,59.942l-65.549,65.549c-7.337,7.338-15.403,14.023-23.972,19.872 l-20.654,14.096c-4.277,2.919-7.006,7.551-7.489,12.707c-0.434,4.643,1.001,9.206,3.964,12.741l-13.58,13.581l-8.858-8.858v-0.001 l-31.011-31.012c-0.003-0.003-0.006-0.005-0.009-0.008l-13.021-13.021l13.578-13.577c3.535,2.98,8.109,4.43,12.758,3.997 c5.148-0.476,9.779-3.193,12.703-7.457l14.726-21.465c5.793-8.444,12.403-16.399,19.648-23.644l65.133-65.134 c4.139-4.14,10.874-4.139,15.013,0l26.62,26.62c2.006,2.005,3.109,4.67,3.109,7.506C493.712,55.272,492.607,57.937,490.602,59.942 z"></path>
        </g>
      </g>
      <g>
        <g>
          <path d="M458.052,50.862c-2.971-2.971-7.787-2.971-10.758,0l-59.664,59.664c-2.971,2.971-2.971,7.787,0,10.756 c1.486,1.486,3.432,2.228,5.379,2.228c1.946,0,3.893-0.742,5.379-2.228l59.664-59.664 C461.022,58.648,461.022,53.832,458.052,50.862z"></path>
        </g>
      </g>
      <g>
        <g>
          <path d="M71.828,424.929c-2.972-2.971-7.787-2.971-10.759,0l-13.378,13.378c-2.971,2.971-2.971,7.787,0,10.757 c1.486,1.485,3.433,2.228,5.379,2.228s3.893-0.742,5.379-2.228l13.378-13.378C74.798,432.715,74.798,427.899,71.828,424.929z"></path>
        </g>
      </g>
      <g>
        <g>
          <path d="M124.95,409.753c-2.972-2.97-7.788-2.971-10.758,0.001l-13.378,13.377c-2.972,2.971-2.972,7.786-0.001,10.756 c1.486,1.486,3.432,2.228,5.379,2.228c1.946,0,3.893-0.742,5.378-2.228l13.378-13.378 C127.921,417.539,127.921,412.723,124.95,409.753z"></path>
        </g>
      </g>
      <g>
        <g>
          <path d="M91.573,443.131c-2.972-2.971-7.788-2.972-10.758,0l-13.378,13.378c-2.972,2.971-2.972,7.786-0.001,10.756 c1.486,1.486,3.432,2.228,5.379,2.228c1.946,0,3.893-0.742,5.378-2.228l13.378-13.378 C94.544,450.917,94.544,446.101,91.573,443.131z"></path>
        </g>
      </g>
      <g>
        <g>
          <path d="M105.978,390.78c-2.971-2.971-7.787-2.972-10.756,0l-13.378,13.378c-2.972,2.971-2.972,7.786-0.001,10.757 c1.486,1.486,3.432,2.228,5.379,2.228c1.946,0,3.893-0.742,5.378-2.228l13.378-13.378 C108.947,398.567,108.947,393.751,105.978,390.78z"></path>
        </g>
      </g>
      <g>
        <g>
          <path d="M158.065,376.638c-2.973-2.971-7.788-2.971-10.759,0l-13.378,13.378c-2.971,2.971-2.971,7.787,0,10.756 c1.486,1.485,3.433,2.228,5.379,2.228s3.893-0.742,5.379-2.228l13.378-13.378C161.036,384.424,161.036,379.608,158.065,376.638z"></path>
        </g>
      </g>
      <g>
        <g>
          <path d="M139.09,357.665c-2.97-2.971-7.786-2.97-10.756,0l-13.377,13.378c-2.971,2.971-2.971,7.787,0.001,10.758 c1.484,1.486,3.431,2.228,5.377,2.228s3.893-0.742,5.379-2.228l13.377-13.378C142.061,365.452,142.061,360.635,139.09,357.665z"></path>
        </g>
      </g>
      <g>
        <g>
          <path d="M191.18,343.524c-2.972-2.97-7.787-2.97-10.759,0l-13.378,13.378c-2.971,2.971-2.971,7.787,0,10.757 c1.486,1.485,3.433,2.228,5.379,2.228c1.946,0,3.893-0.742,5.379-2.228l13.378-13.378 C194.15,351.31,194.15,346.494,191.18,343.524z"></path>
        </g>
      </g>
      <g>
        <g>
          <path d="M172.205,324.552c-2.972-2.971-7.787-2.971-10.758,0L148.07,337.93c-2.971,2.971-2.971,7.787,0,10.757 c1.485,1.486,3.432,2.228,5.378,2.228s3.893-0.742,5.379-2.228l13.378-13.378C175.176,332.338,175.176,327.521,172.205,324.552z"></path>
        </g>
      </g>
      <g>
        <g>
          <path d="M223.258,311.443c-2.97-2.97-7.786-2.969-10.758,0.001l-13.377,13.378c-2.971,2.971-2.971,7.787,0.001,10.758 c1.485,1.485,3.432,2.227,5.378,2.227s3.893-0.742,5.379-2.228l13.377-13.378C226.229,319.23,226.229,314.414,223.258,311.443z"></path>
        </g>
      </g>
      <g>
        <g>
          <path d="M204.285,292.473c-2.972-2.971-7.787-2.971-10.758,0l-13.378,13.378c-2.971,2.971-2.971,7.787,0,10.757 c1.485,1.485,3.432,2.228,5.378,2.228s3.893-0.742,5.379-2.228l13.378-13.378C207.256,300.259,207.256,295.442,204.285,292.473z"></path>
        </g>
      </g>
      <g>
        <g>
          <path d="M255.338,279.365c-2.972-2.971-7.788-2.972-10.758,0l-13.378,13.378c-2.972,2.971-2.972,7.786-0.001,10.757 c1.486,1.486,3.432,2.228,5.379,2.228c1.946,0,3.893-0.742,5.378-2.228l13.378-13.378 C258.309,287.151,258.309,282.336,255.338,279.365z"></path>
        </g>
      </g>
      <g>
        <g>
          <path d="M236.365,260.393c-2.971-2.971-7.787-2.972-10.757,0l-13.378,13.378c-2.972,2.971-2.972,7.786-0.001,10.756 c1.485,1.486,3.431,2.228,5.378,2.228c1.946,0,3.893-0.742,5.378-2.228l13.378-13.378 C239.336,268.179,239.336,263.363,236.365,260.393z"></path>
        </g>
      </g>
      <g>
        <g>
          <path d="M287.418,247.285c-2.973-2.971-7.788-2.971-10.758,0l-13.378,13.378c-2.971,2.971-2.971,7.787,0,10.756 c1.486,1.485,3.433,2.228,5.379,2.228c1.946,0,3.893-0.742,5.379-2.228l13.378-13.378 C290.389,255.071,290.389,250.255,287.418,247.285z"></path>
        </g>
      </g>
      <g>
        <g>
          <path d="M268.445,228.313c-2.972-2.971-7.787-2.971-10.758,0l-13.378,13.378c-2.971,2.971-2.971,7.787,0,10.756 c1.485,1.486,3.432,2.228,5.378,2.228s3.893-0.742,5.379-2.228l13.378-13.378C271.415,236.099,271.415,231.283,268.445,228.313z"></path>
        </g>
      </g>
    </g>
  </symbol>
  <symbol fill="#C5853A" version="1.1" id="saw" xmlns="http://www.w3.org/2000/svg" xmlns:xlink="http://www.w3.org/1999/xlink" xml:space="preserve" viewBox="0 0 512 512">
    <g id="SVGRepo_bgCarrier" stroke-width="0"></g>
    <g id="SVGRepo_tracerCarrier" stroke-linecap="round" stroke-linejoin="round"></g>
    <g id="SVGRepo_iconCarrier">
      <g>
        <g>
          <path d="M511.987,105.285c-0.117-2.013-1.029-3.898-2.535-5.239L407.939,9.675c-3.135-2.792-7.943-2.513-10.735,0.624 L285.146,136.169l-0.001,0.001L1.948,451.345c-1.352,1.505-2.049,3.486-1.936,5.505c0.113,2.02,1.025,3.911,2.536,5.257 l41.5,36.941c0.014,0.013,0.029,0.026,0.045,0.04l0.106,0.095c0.034,0.03,0.071,0.056,0.104,0.085 c0.137,0.119,0.277,0.233,0.423,0.342c0.046,0.033,0.092,0.064,0.139,0.096c0.148,0.105,0.298,0.208,0.455,0.303 c0.044,0.026,0.089,0.05,0.134,0.075c0.161,0.093,0.324,0.185,0.493,0.267c0.027,0.013,0.055,0.023,0.082,0.036 c0.529,0.248,1.093,0.435,1.684,0.557c0.071,0.014,0.142,0.033,0.213,0.047c0.129,0.022,0.26,0.036,0.391,0.053 c0.113,0.014,0.225,0.029,0.339,0.039c0.041,0.003,0.08,0.011,0.122,0.014l50.02,3.138c0.162,0.01,0.323,0.015,0.484,0.015 c3.981,0,7.329-3.099,7.582-7.128l2.661-42.431l42.431,2.661c4.187,0.258,7.802-2.921,8.065-7.113l2.661-42.431l42.431,2.662 c2.006,0.125,3.993-0.553,5.506-1.886c1.513-1.334,2.433-3.214,2.559-5.226l2.661-42.431l42.431,2.662 c2.014,0.123,3.994-0.553,5.506-1.886c1.513-1.334,2.433-3.214,2.559-5.226l2.661-42.431l42.431,2.662 c2.008,0.124,3.993-0.553,5.506-1.886c1.513-1.334,2.433-3.214,2.559-5.226l2.661-42.431l42.431,2.662 c4.116,0.243,7.706-2.83,8.053-6.951l3.714-44.109l47.781-13.272c1.407-0.391,2.672-1.179,3.644-2.271l82.294-92.44 C511.417,109.276,512.105,107.299,511.987,105.285z M92.161,488.577l-24.11-1.513l25.621-22.596L92.161,488.577z M145.318,441.697 l-24.109-1.513l25.621-22.596L145.318,441.697z M198.477,394.815l-24.109-1.513l25.621-22.596L198.477,394.815z M251.635,347.933 l-24.109-1.513l25.621-22.596L251.635,347.933z M304.794,301.051l-24.109-1.513l25.621-22.596L304.794,301.051z M310.019,253.39 c-0.001,0.001-0.003,0.002-0.004,0.003c-0.001,0.001-0.002,0.002-0.004,0.003l-53.151,46.875 c-0.001,0.001-0.003,0.002-0.005,0.004c-0.002,0.002-0.003,0.003-0.004,0.004l-53.149,46.874 c-0.002,0.001-0.003,0.003-0.005,0.004c-0.002,0.001-0.003,0.003-0.005,0.005l-53.148,46.873 c-0.002,0.002-0.004,0.003-0.006,0.005c-0.002,0.002-0.003,0.003-0.005,0.005l-101.256,89.3l-30.913-27.516l273.034-303.863 l66.498,59.2L310.019,253.39z M358.113,254.18l-24.27-1.523l26.355-23.243L358.113,254.18z M417.911,191.438l-45.199,12.555 l-26.622-23.7l-44.553-39.663l101.969-114.54l90.155,80.259L417.911,191.438z"></path>
        </g>
      </g>
      <g>
        <g>
          <path d="M460.832,105.559l-52.174-46.448c-3.134-2.793-7.943-2.514-10.735,0.622l-58.415,65.615 c-4.241,4.764-6.373,10.896-6.003,17.263c0.37,6.368,3.198,12.211,7.962,16.453l12.341,10.986 c6.436,5.729,14.753,8.82,23.227,8.82c2.471,0,4.955-0.263,7.408-0.8l16.276-3.559c7.238-1.583,13.668-5.344,18.594-10.879 l42.143-47.339C464.248,113.157,463.969,108.351,460.832,105.559z M407.954,153.522c-2.778,3.121-6.404,5.242-10.484,6.134 l-16.276,3.559c-6.127,1.34-12.587-0.351-17.274-4.522l-12.341-10.986c-1.731-1.54-2.757-3.662-2.892-5.976 c-0.134-2.313,0.64-4.54,2.18-6.27l53.359-59.935l40.815,36.336L407.954,153.522z"></path>
        </g>
      </g>
    </g>
  </symbol>
</svg>